<mxfile host="app.diagrams.net" modified="2020-07-24T11:34:55.262Z" agent="5.0 (Windows)" etag="ZNDuPWV41JE1dXC4YtB0" version="13.4.9" type="github">
  <diagram name="Page-1" id="0783ab3e-0a74-02c8-0abd-f7b4e66b4bec">
    <mxGraphModel dx="1221" dy="644" grid="1" gridSize="10" guides="1" tooltips="1" connect="1" arrows="1" fold="1" page="1" pageScale="1" pageWidth="850" pageHeight="1100" background="#ffffff" math="0" shadow="0">
      <root>
        <mxCell id="0" />
        <mxCell id="1" parent="0" />
        <mxCell id="T-cFDftBZHlL0c4SR16P-17" style="edgeStyle=orthogonalEdgeStyle;rounded=0;orthogonalLoop=1;jettySize=auto;html=1;" edge="1" parent="1" source="T-cFDftBZHlL0c4SR16P-16">
          <mxGeometry relative="1" as="geometry">
            <mxPoint x="490" y="115" as="targetPoint" />
          </mxGeometry>
        </mxCell>
        <mxCell id="1c1d494c118603dd-1" value="Pool" style="swimlane;html=1;childLayout=stackLayout;startSize=20;rounded=0;shadow=0;comic=0;labelBackgroundColor=none;strokeWidth=1;fontFamily=Verdana;fontSize=12;align=center;" parent="1" vertex="1">
          <mxGeometry x="80" y="30" width="770" height="1050" as="geometry" />
        </mxCell>
        <mxCell id="T-cFDftBZHlL0c4SR16P-10" value="User" style="swimlane;" vertex="1" parent="1c1d494c118603dd-1">
          <mxGeometry y="20" width="380" height="1030" as="geometry" />
        </mxCell>
        <mxCell id="T-cFDftBZHlL0c4SR16P-13" value="" style="ellipse;html=1;shape=startState;fillColor=#000000;strokeColor=#ff0000;" vertex="1" parent="T-cFDftBZHlL0c4SR16P-10">
          <mxGeometry x="160" y="50" width="30" height="30" as="geometry" />
        </mxCell>
        <mxCell id="T-cFDftBZHlL0c4SR16P-36" style="edgeStyle=orthogonalEdgeStyle;rounded=0;orthogonalLoop=1;jettySize=auto;html=1;entryX=0.34;entryY=1.1;entryDx=0;entryDy=0;entryPerimeter=0;" edge="1" parent="T-cFDftBZHlL0c4SR16P-10" source="T-cFDftBZHlL0c4SR16P-35" target="T-cFDftBZHlL0c4SR16P-16">
          <mxGeometry relative="1" as="geometry" />
        </mxCell>
        <mxCell id="T-cFDftBZHlL0c4SR16P-56" value="" style="rhombus;whiteSpace=wrap;html=1;" vertex="1" parent="T-cFDftBZHlL0c4SR16P-10">
          <mxGeometry x="170" y="530" width="60" height="60" as="geometry" />
        </mxCell>
        <mxCell id="T-cFDftBZHlL0c4SR16P-57" style="edgeStyle=orthogonalEdgeStyle;rounded=0;orthogonalLoop=1;jettySize=auto;html=1;entryX=0.5;entryY=0;entryDx=0;entryDy=0;" edge="1" parent="T-cFDftBZHlL0c4SR16P-10" source="T-cFDftBZHlL0c4SR16P-51" target="T-cFDftBZHlL0c4SR16P-56">
          <mxGeometry relative="1" as="geometry" />
        </mxCell>
        <mxCell id="T-cFDftBZHlL0c4SR16P-51" value="Renew" style="rounded=1;whiteSpace=wrap;html=1;" vertex="1" parent="T-cFDftBZHlL0c4SR16P-10">
          <mxGeometry x="140" y="470" width="120" height="30" as="geometry" />
        </mxCell>
        <mxCell id="T-cFDftBZHlL0c4SR16P-47" value="" style="rhombus;whiteSpace=wrap;html=1;" vertex="1" parent="T-cFDftBZHlL0c4SR16P-10">
          <mxGeometry x="170" y="380" width="60" height="65" as="geometry" />
        </mxCell>
        <mxCell id="T-cFDftBZHlL0c4SR16P-45" value="Return a Book" style="rounded=1;whiteSpace=wrap;html=1;" vertex="1" parent="T-cFDftBZHlL0c4SR16P-10">
          <mxGeometry x="140" y="320" width="120" height="30" as="geometry" />
        </mxCell>
        <mxCell id="T-cFDftBZHlL0c4SR16P-102" value="" style="ellipse;html=1;shape=endState;fillColor=#000000;strokeColor=#ff0000;" vertex="1" parent="T-cFDftBZHlL0c4SR16P-10">
          <mxGeometry x="245" y="990" width="30" height="30" as="geometry" />
        </mxCell>
        <mxCell id="T-cFDftBZHlL0c4SR16P-103" style="edgeStyle=orthogonalEdgeStyle;rounded=0;orthogonalLoop=1;jettySize=auto;html=1;entryX=0.5;entryY=0;entryDx=0;entryDy=0;" edge="1" parent="T-cFDftBZHlL0c4SR16P-10" source="T-cFDftBZHlL0c4SR16P-100" target="T-cFDftBZHlL0c4SR16P-102">
          <mxGeometry relative="1" as="geometry" />
        </mxCell>
        <mxCell id="T-cFDftBZHlL0c4SR16P-100" value="" style="shape=line;html=1;strokeWidth=6;strokeColor=#ff0000;" vertex="1" parent="T-cFDftBZHlL0c4SR16P-10">
          <mxGeometry x="160" y="950" width="200" height="10" as="geometry" />
        </mxCell>
        <mxCell id="T-cFDftBZHlL0c4SR16P-83" value="" style="rhombus;whiteSpace=wrap;html=1;" vertex="1" parent="T-cFDftBZHlL0c4SR16P-10">
          <mxGeometry x="205" y="810" width="80" height="60" as="geometry" />
        </mxCell>
        <mxCell id="T-cFDftBZHlL0c4SR16P-79" value="Search for a book" style="rounded=1;whiteSpace=wrap;html=1;" vertex="1" parent="T-cFDftBZHlL0c4SR16P-10">
          <mxGeometry x="185" y="750" width="120" height="30" as="geometry" />
        </mxCell>
        <mxCell id="T-cFDftBZHlL0c4SR16P-74" value="" style="shape=line;html=1;strokeWidth=6;strokeColor=#ff0000;" vertex="1" parent="T-cFDftBZHlL0c4SR16P-10">
          <mxGeometry x="145" y="700" width="200" height="10" as="geometry" />
        </mxCell>
        <mxCell id="T-cFDftBZHlL0c4SR16P-35" value="Enter sign up details" style="rounded=1;whiteSpace=wrap;html=1;" vertex="1" parent="T-cFDftBZHlL0c4SR16P-10">
          <mxGeometry x="170" y="110" width="120" height="40" as="geometry" />
        </mxCell>
        <mxCell id="T-cFDftBZHlL0c4SR16P-107" value="No" style="text;html=1;align=center;verticalAlign=middle;resizable=0;points=[];autosize=1;" vertex="1" parent="T-cFDftBZHlL0c4SR16P-10">
          <mxGeometry x="245" y="890" width="30" height="20" as="geometry" />
        </mxCell>
        <mxCell id="T-cFDftBZHlL0c4SR16P-16" value="login" style="rounded=1;whiteSpace=wrap;html=1;" vertex="1" parent="T-cFDftBZHlL0c4SR16P-10">
          <mxGeometry x="220" y="50" width="100" height="30" as="geometry" />
        </mxCell>
        <mxCell id="T-cFDftBZHlL0c4SR16P-15" style="edgeStyle=orthogonalEdgeStyle;rounded=0;orthogonalLoop=1;jettySize=auto;html=1;entryX=0;entryY=0.5;entryDx=0;entryDy=0;" edge="1" parent="T-cFDftBZHlL0c4SR16P-10" source="T-cFDftBZHlL0c4SR16P-13" target="T-cFDftBZHlL0c4SR16P-16">
          <mxGeometry relative="1" as="geometry">
            <mxPoint x="200" y="75" as="targetPoint" />
          </mxGeometry>
        </mxCell>
        <mxCell id="T-cFDftBZHlL0c4SR16P-40" style="edgeStyle=orthogonalEdgeStyle;rounded=0;orthogonalLoop=1;jettySize=auto;html=1;" edge="1" parent="1c1d494c118603dd-1" source="T-cFDftBZHlL0c4SR16P-39">
          <mxGeometry relative="1" as="geometry">
            <mxPoint x="200" y="340" as="targetPoint" />
            <Array as="points">
              <mxPoint x="535" y="320" />
              <mxPoint x="200" y="320" />
            </Array>
          </mxGeometry>
        </mxCell>
        <mxCell id="T-cFDftBZHlL0c4SR16P-48" style="edgeStyle=orthogonalEdgeStyle;rounded=0;orthogonalLoop=1;jettySize=auto;html=1;" edge="1" parent="1c1d494c118603dd-1" source="T-cFDftBZHlL0c4SR16P-47">
          <mxGeometry relative="1" as="geometry">
            <mxPoint x="569" y="590" as="targetPoint" />
          </mxGeometry>
        </mxCell>
        <mxCell id="T-cFDftBZHlL0c4SR16P-12" value="The Book Banking System" style="swimlane;" vertex="1" parent="1c1d494c118603dd-1">
          <mxGeometry x="380" y="20" width="390" height="1030" as="geometry" />
        </mxCell>
        <mxCell id="T-cFDftBZHlL0c4SR16P-26" value="Yes" style="text;html=1;align=center;verticalAlign=middle;resizable=0;points=[];autosize=1;" vertex="1" parent="T-cFDftBZHlL0c4SR16P-12">
          <mxGeometry x="30" y="100" width="40" height="20" as="geometry" />
        </mxCell>
        <mxCell id="T-cFDftBZHlL0c4SR16P-18" value="registered e-mail" style="rhombus;whiteSpace=wrap;html=1;" vertex="1" parent="T-cFDftBZHlL0c4SR16P-12">
          <mxGeometry x="30" y="40" width="80" height="60" as="geometry" />
        </mxCell>
        <mxCell id="T-cFDftBZHlL0c4SR16P-25" value="&lt;div&gt;correct&lt;/div&gt;&lt;div&gt;password&lt;br&gt;&lt;/div&gt;" style="rhombus;whiteSpace=wrap;html=1;" vertex="1" parent="T-cFDftBZHlL0c4SR16P-12">
          <mxGeometry x="30" y="130" width="80" height="80" as="geometry" />
        </mxCell>
        <mxCell id="T-cFDftBZHlL0c4SR16P-33" value="Yes" style="text;html=1;align=center;verticalAlign=middle;resizable=0;points=[];autosize=1;" vertex="1" parent="T-cFDftBZHlL0c4SR16P-12">
          <mxGeometry x="70" y="210" width="40" height="20" as="geometry" />
        </mxCell>
        <mxCell id="T-cFDftBZHlL0c4SR16P-61" style="edgeStyle=orthogonalEdgeStyle;rounded=0;orthogonalLoop=1;jettySize=auto;html=1;entryX=0.5;entryY=0;entryDx=0;entryDy=0;" edge="1" parent="T-cFDftBZHlL0c4SR16P-12" source="T-cFDftBZHlL0c4SR16P-59">
          <mxGeometry relative="1" as="geometry">
            <mxPoint x="155" y="600" as="targetPoint" />
          </mxGeometry>
        </mxCell>
        <mxCell id="T-cFDftBZHlL0c4SR16P-86" value="Availability" style="rhombus;whiteSpace=wrap;html=1;" vertex="1" parent="T-cFDftBZHlL0c4SR16P-12">
          <mxGeometry x="65" y="805" width="65" height="70" as="geometry" />
        </mxCell>
        <mxCell id="T-cFDftBZHlL0c4SR16P-69" value="No" style="text;html=1;align=center;verticalAlign=middle;resizable=0;points=[];autosize=1;" vertex="1" parent="T-cFDftBZHlL0c4SR16P-12">
          <mxGeometry x="115" y="640" width="30" height="20" as="geometry" />
        </mxCell>
        <mxCell id="T-cFDftBZHlL0c4SR16P-64" value="Penalty" style="rhombus;whiteSpace=wrap;html=1;" vertex="1" parent="T-cFDftBZHlL0c4SR16P-12">
          <mxGeometry x="115" y="590" width="80" height="50" as="geometry" />
        </mxCell>
        <mxCell id="T-cFDftBZHlL0c4SR16P-59" value="" style="shape=line;html=1;strokeWidth=6;strokeColor=#ff0000;" vertex="1" parent="T-cFDftBZHlL0c4SR16P-12">
          <mxGeometry x="55" y="570" width="200" height="10" as="geometry" />
        </mxCell>
        <mxCell id="T-cFDftBZHlL0c4SR16P-39" value="Display the Home Page of the site" style="rounded=1;whiteSpace=wrap;html=1;" vertex="1" parent="T-cFDftBZHlL0c4SR16P-12">
          <mxGeometry x="100" y="250" width="110" height="40" as="geometry" />
        </mxCell>
        <mxCell id="T-cFDftBZHlL0c4SR16P-28" value="No" style="text;html=1;align=center;verticalAlign=middle;resizable=0;points=[];autosize=1;" vertex="1" parent="T-cFDftBZHlL0c4SR16P-12">
          <mxGeometry x="130" y="140" width="30" height="20" as="geometry" />
        </mxCell>
        <mxCell id="T-cFDftBZHlL0c4SR16P-37" value="" style="endArrow=none;dashed=1;html=1;" edge="1" parent="T-cFDftBZHlL0c4SR16P-12">
          <mxGeometry width="50" height="50" relative="1" as="geometry">
            <mxPoint x="130" y="140" as="sourcePoint" />
            <mxPoint x="200" y="140" as="targetPoint" />
            <Array as="points">
              <mxPoint x="170" y="140.5" />
            </Array>
          </mxGeometry>
        </mxCell>
        <mxCell id="T-cFDftBZHlL0c4SR16P-88" value="Yes" style="text;html=1;align=center;verticalAlign=middle;resizable=0;points=[];autosize=1;" vertex="1" parent="T-cFDftBZHlL0c4SR16P-12">
          <mxGeometry x="150" y="805" width="40" height="20" as="geometry" />
        </mxCell>
        <mxCell id="T-cFDftBZHlL0c4SR16P-95" value="" style="shape=line;html=1;strokeWidth=6;strokeColor=#ff0000;" vertex="1" parent="T-cFDftBZHlL0c4SR16P-12">
          <mxGeometry x="80" y="910" width="280" height="10" as="geometry" />
        </mxCell>
        <mxCell id="T-cFDftBZHlL0c4SR16P-21" value="Display the sign up page" style="rounded=1;whiteSpace=wrap;html=1;" vertex="1" parent="T-cFDftBZHlL0c4SR16P-12">
          <mxGeometry x="170" y="55" width="100" height="35" as="geometry" />
        </mxCell>
        <mxCell id="T-cFDftBZHlL0c4SR16P-66" value="Yes" style="text;html=1;align=center;verticalAlign=middle;resizable=0;points=[];autosize=1;" vertex="1" parent="T-cFDftBZHlL0c4SR16P-12">
          <mxGeometry x="200" y="590" width="40" height="20" as="geometry" />
        </mxCell>
        <mxCell id="T-cFDftBZHlL0c4SR16P-89" value="&lt;div&gt;Check the&lt;/div&gt;&lt;div&gt;limit&lt;br&gt;&lt;/div&gt;" style="rhombus;whiteSpace=wrap;html=1;" vertex="1" parent="T-cFDftBZHlL0c4SR16P-12">
          <mxGeometry x="210" y="800" width="70" height="80" as="geometry" />
        </mxCell>
        <mxCell id="T-cFDftBZHlL0c4SR16P-70" value="" style="shape=line;html=1;strokeWidth=6;strokeColor=#ff0000;" vertex="1" parent="T-cFDftBZHlL0c4SR16P-12">
          <mxGeometry x="150" y="670" width="200" height="10" as="geometry" />
        </mxCell>
        <mxCell id="T-cFDftBZHlL0c4SR16P-38" value="&lt;div&gt;if the number of &lt;br&gt;&lt;/div&gt;&lt;div&gt;tries exceeds a &lt;br&gt;&lt;/div&gt;&lt;div&gt;certain limit . Send a mail to the entered mail-id for&lt;/div&gt;&lt;div&gt;confirmation.&lt;br&gt;&lt;/div&gt;" style="shape=note;whiteSpace=wrap;html=1;size=14;verticalAlign=top;align=left;spacingTop=-6;" vertex="1" parent="T-cFDftBZHlL0c4SR16P-12">
          <mxGeometry x="200" y="130" width="100" height="90" as="geometry" />
        </mxCell>
        <mxCell id="T-cFDftBZHlL0c4SR16P-91" value="Yes" style="text;html=1;align=center;verticalAlign=middle;resizable=0;points=[];autosize=1;" vertex="1" parent="T-cFDftBZHlL0c4SR16P-12">
          <mxGeometry x="260" y="805" width="40" height="20" as="geometry" />
        </mxCell>
        <mxCell id="T-cFDftBZHlL0c4SR16P-67" value="Collect Fine" style="rounded=1;whiteSpace=wrap;html=1;" vertex="1" parent="T-cFDftBZHlL0c4SR16P-12">
          <mxGeometry x="260" y="600" width="120" height="30" as="geometry" />
        </mxCell>
        <mxCell id="T-cFDftBZHlL0c4SR16P-19" style="edgeStyle=orthogonalEdgeStyle;rounded=0;orthogonalLoop=1;jettySize=auto;html=1;exitX=1;exitY=0.5;exitDx=0;exitDy=0;" edge="1" parent="1" source="T-cFDftBZHlL0c4SR16P-18">
          <mxGeometry relative="1" as="geometry">
            <mxPoint x="630" y="120" as="targetPoint" />
          </mxGeometry>
        </mxCell>
        <mxCell id="T-cFDftBZHlL0c4SR16P-20" value="No" style="text;html=1;align=center;verticalAlign=middle;resizable=0;points=[];autosize=1;" vertex="1" parent="1">
          <mxGeometry x="575" y="100" width="30" height="20" as="geometry" />
        </mxCell>
        <mxCell id="T-cFDftBZHlL0c4SR16P-23" style="edgeStyle=orthogonalEdgeStyle;rounded=0;orthogonalLoop=1;jettySize=auto;html=1;" edge="1" parent="1" source="T-cFDftBZHlL0c4SR16P-18">
          <mxGeometry relative="1" as="geometry">
            <mxPoint x="530" y="180" as="targetPoint" />
          </mxGeometry>
        </mxCell>
        <mxCell id="T-cFDftBZHlL0c4SR16P-29" style="edgeStyle=orthogonalEdgeStyle;rounded=0;orthogonalLoop=1;jettySize=auto;html=1;" edge="1" parent="1" source="T-cFDftBZHlL0c4SR16P-25">
          <mxGeometry relative="1" as="geometry">
            <mxPoint x="530" y="170" as="targetPoint" />
            <Array as="points">
              <mxPoint x="590" y="220" />
              <mxPoint x="590" y="170" />
            </Array>
          </mxGeometry>
        </mxCell>
        <mxCell id="T-cFDftBZHlL0c4SR16P-32" style="edgeStyle=orthogonalEdgeStyle;rounded=0;orthogonalLoop=1;jettySize=auto;html=1;" edge="1" parent="1" source="T-cFDftBZHlL0c4SR16P-25">
          <mxGeometry relative="1" as="geometry">
            <mxPoint x="560" y="320" as="targetPoint" />
            <Array as="points">
              <mxPoint x="530" y="320" />
            </Array>
          </mxGeometry>
        </mxCell>
        <mxCell id="T-cFDftBZHlL0c4SR16P-34" style="edgeStyle=orthogonalEdgeStyle;rounded=0;orthogonalLoop=1;jettySize=auto;html=1;" edge="1" parent="1" source="T-cFDftBZHlL0c4SR16P-21">
          <mxGeometry relative="1" as="geometry">
            <mxPoint x="350" y="160" as="targetPoint" />
            <Array as="points">
              <mxPoint x="680" y="150" />
              <mxPoint x="350" y="150" />
            </Array>
          </mxGeometry>
        </mxCell>
        <mxCell id="T-cFDftBZHlL0c4SR16P-46" style="edgeStyle=orthogonalEdgeStyle;rounded=0;orthogonalLoop=1;jettySize=auto;html=1;" edge="1" parent="1" source="T-cFDftBZHlL0c4SR16P-45">
          <mxGeometry relative="1" as="geometry">
            <mxPoint x="280" y="430" as="targetPoint" />
          </mxGeometry>
        </mxCell>
        <mxCell id="T-cFDftBZHlL0c4SR16P-49" value="Yes" style="text;html=1;align=center;verticalAlign=middle;resizable=0;points=[];autosize=1;" vertex="1" parent="1">
          <mxGeometry x="320" y="440" width="40" height="20" as="geometry" />
        </mxCell>
        <mxCell id="T-cFDftBZHlL0c4SR16P-50" style="edgeStyle=orthogonalEdgeStyle;rounded=0;orthogonalLoop=1;jettySize=auto;html=1;exitX=0.5;exitY=1;exitDx=0;exitDy=0;" edge="1" parent="1" source="T-cFDftBZHlL0c4SR16P-47">
          <mxGeometry relative="1" as="geometry">
            <mxPoint x="280" y="520" as="targetPoint" />
          </mxGeometry>
        </mxCell>
        <mxCell id="T-cFDftBZHlL0c4SR16P-52" value="No" style="text;html=1;align=center;verticalAlign=middle;resizable=0;points=[];autosize=1;" vertex="1" parent="1">
          <mxGeometry x="275" y="490" width="30" height="20" as="geometry" />
        </mxCell>
        <mxCell id="T-cFDftBZHlL0c4SR16P-58" style="edgeStyle=orthogonalEdgeStyle;rounded=0;orthogonalLoop=1;jettySize=auto;html=1;" edge="1" parent="1" source="T-cFDftBZHlL0c4SR16P-56">
          <mxGeometry relative="1" as="geometry">
            <mxPoint x="560" y="620" as="targetPoint" />
            <Array as="points">
              <mxPoint x="500" y="610" />
              <mxPoint x="500" y="610" />
            </Array>
          </mxGeometry>
        </mxCell>
        <mxCell id="T-cFDftBZHlL0c4SR16P-62" style="edgeStyle=orthogonalEdgeStyle;rounded=0;orthogonalLoop=1;jettySize=auto;html=1;" edge="1" parent="1">
          <mxGeometry relative="1" as="geometry">
            <mxPoint x="615" y="720" as="targetPoint" />
            <mxPoint x="615" y="690" as="sourcePoint" />
          </mxGeometry>
        </mxCell>
        <mxCell id="T-cFDftBZHlL0c4SR16P-65" style="edgeStyle=orthogonalEdgeStyle;rounded=0;orthogonalLoop=1;jettySize=auto;html=1;" edge="1" parent="1" source="T-cFDftBZHlL0c4SR16P-64">
          <mxGeometry relative="1" as="geometry">
            <mxPoint x="720" y="665" as="targetPoint" />
          </mxGeometry>
        </mxCell>
        <mxCell id="T-cFDftBZHlL0c4SR16P-68" style="edgeStyle=orthogonalEdgeStyle;rounded=0;orthogonalLoop=1;jettySize=auto;html=1;" edge="1" parent="1" source="T-cFDftBZHlL0c4SR16P-67">
          <mxGeometry relative="1" as="geometry">
            <mxPoint x="780" y="720" as="targetPoint" />
          </mxGeometry>
        </mxCell>
        <mxCell id="T-cFDftBZHlL0c4SR16P-72" style="edgeStyle=orthogonalEdgeStyle;rounded=0;orthogonalLoop=1;jettySize=auto;html=1;" edge="1" parent="1" source="T-cFDftBZHlL0c4SR16P-70">
          <mxGeometry relative="1" as="geometry">
            <mxPoint x="380" y="750" as="targetPoint" />
            <Array as="points">
              <mxPoint x="710" y="740" />
              <mxPoint x="380" y="740" />
            </Array>
          </mxGeometry>
        </mxCell>
        <mxCell id="T-cFDftBZHlL0c4SR16P-73" style="edgeStyle=orthogonalEdgeStyle;rounded=0;orthogonalLoop=1;jettySize=auto;html=1;" edge="1" parent="1" source="T-cFDftBZHlL0c4SR16P-56">
          <mxGeometry relative="1" as="geometry">
            <mxPoint x="280" y="750" as="targetPoint" />
          </mxGeometry>
        </mxCell>
        <mxCell id="T-cFDftBZHlL0c4SR16P-78" style="edgeStyle=orthogonalEdgeStyle;rounded=0;orthogonalLoop=1;jettySize=auto;html=1;" edge="1" parent="1" source="T-cFDftBZHlL0c4SR16P-74">
          <mxGeometry relative="1" as="geometry">
            <mxPoint x="325" y="800" as="targetPoint" />
          </mxGeometry>
        </mxCell>
        <mxCell id="T-cFDftBZHlL0c4SR16P-82" style="edgeStyle=orthogonalEdgeStyle;rounded=0;orthogonalLoop=1;jettySize=auto;html=1;" edge="1" parent="1" source="T-cFDftBZHlL0c4SR16P-79">
          <mxGeometry relative="1" as="geometry">
            <mxPoint x="325" y="860" as="targetPoint" />
          </mxGeometry>
        </mxCell>
        <mxCell id="T-cFDftBZHlL0c4SR16P-84" style="edgeStyle=orthogonalEdgeStyle;rounded=0;orthogonalLoop=1;jettySize=auto;html=1;" edge="1" parent="1" source="T-cFDftBZHlL0c4SR16P-83">
          <mxGeometry relative="1" as="geometry">
            <mxPoint x="530" y="890" as="targetPoint" />
          </mxGeometry>
        </mxCell>
        <mxCell id="T-cFDftBZHlL0c4SR16P-85" style="edgeStyle=orthogonalEdgeStyle;rounded=0;orthogonalLoop=1;jettySize=auto;html=1;" edge="1" parent="1" source="T-cFDftBZHlL0c4SR16P-83">
          <mxGeometry relative="1" as="geometry">
            <mxPoint x="325" y="1000" as="targetPoint" />
          </mxGeometry>
        </mxCell>
        <mxCell id="T-cFDftBZHlL0c4SR16P-87" style="edgeStyle=orthogonalEdgeStyle;rounded=0;orthogonalLoop=1;jettySize=auto;html=1;" edge="1" parent="1" source="T-cFDftBZHlL0c4SR16P-86">
          <mxGeometry relative="1" as="geometry">
            <mxPoint x="670" y="890" as="targetPoint" />
          </mxGeometry>
        </mxCell>
        <mxCell id="T-cFDftBZHlL0c4SR16P-90" style="edgeStyle=orthogonalEdgeStyle;rounded=0;orthogonalLoop=1;jettySize=auto;html=1;" edge="1" parent="1" source="T-cFDftBZHlL0c4SR16P-89">
          <mxGeometry relative="1" as="geometry">
            <mxPoint x="760" y="890" as="targetPoint" />
          </mxGeometry>
        </mxCell>
        <mxCell id="T-cFDftBZHlL0c4SR16P-98" style="edgeStyle=orthogonalEdgeStyle;rounded=0;orthogonalLoop=1;jettySize=auto;html=1;entryX=0.911;entryY=0.4;entryDx=0;entryDy=0;entryPerimeter=0;" edge="1" parent="1" source="T-cFDftBZHlL0c4SR16P-92" target="T-cFDftBZHlL0c4SR16P-95">
          <mxGeometry relative="1" as="geometry" />
        </mxCell>
        <mxCell id="T-cFDftBZHlL0c4SR16P-92" value="&lt;div&gt;Display the &lt;br&gt;&lt;/div&gt;&lt;div&gt;Book&lt;br&gt;&lt;/div&gt;" style="rounded=1;whiteSpace=wrap;html=1;" vertex="1" parent="1">
          <mxGeometry x="760" y="870" width="70" height="40" as="geometry" />
        </mxCell>
        <mxCell id="T-cFDftBZHlL0c4SR16P-93" style="edgeStyle=orthogonalEdgeStyle;rounded=0;orthogonalLoop=1;jettySize=auto;html=1;" edge="1" parent="1" source="T-cFDftBZHlL0c4SR16P-86">
          <mxGeometry relative="1" as="geometry">
            <mxPoint x="557.5" y="960" as="targetPoint" />
          </mxGeometry>
        </mxCell>
        <mxCell id="T-cFDftBZHlL0c4SR16P-94" style="edgeStyle=orthogonalEdgeStyle;rounded=0;orthogonalLoop=1;jettySize=auto;html=1;" edge="1" parent="1" source="T-cFDftBZHlL0c4SR16P-89">
          <mxGeometry relative="1" as="geometry">
            <mxPoint x="705" y="960" as="targetPoint" />
          </mxGeometry>
        </mxCell>
        <mxCell id="T-cFDftBZHlL0c4SR16P-99" style="edgeStyle=orthogonalEdgeStyle;rounded=0;orthogonalLoop=1;jettySize=auto;html=1;" edge="1" parent="1" source="T-cFDftBZHlL0c4SR16P-95">
          <mxGeometry relative="1" as="geometry">
            <mxPoint x="410" y="1000" as="targetPoint" />
            <Array as="points">
              <mxPoint x="680" y="980" />
              <mxPoint x="410" y="980" />
            </Array>
          </mxGeometry>
        </mxCell>
        <mxCell id="T-cFDftBZHlL0c4SR16P-104" value="No" style="text;html=1;align=center;verticalAlign=middle;resizable=0;points=[];autosize=1;" vertex="1" parent="1">
          <mxGeometry x="565" y="930" width="30" height="20" as="geometry" />
        </mxCell>
        <mxCell id="T-cFDftBZHlL0c4SR16P-105" value="No" style="text;html=1;align=center;verticalAlign=middle;resizable=0;points=[];autosize=1;" vertex="1" parent="1">
          <mxGeometry x="705" y="930" width="30" height="20" as="geometry" />
        </mxCell>
        <mxCell id="T-cFDftBZHlL0c4SR16P-106" value="Yes" style="text;html=1;align=center;verticalAlign=middle;resizable=0;points=[];autosize=1;" vertex="1" parent="1">
          <mxGeometry x="370" y="870" width="40" height="20" as="geometry" />
        </mxCell>
      </root>
    </mxGraphModel>
  </diagram>
</mxfile>
